# xmcd
# 
# Track frame offsets:
#     150
#     21333
#     39493
#     60582
#     80598
#     96956
#     116190
#     134170
#     148923
#     170663
# 
# Disc length: 2575
# 
# Revision: 0
# Processed by: cddbd v1.5.2PL0 Copyright (c) Steve Scherf et al.
# Submitted via: fre:ac v1.0.17
# 
DISCID=980a0d0a
DTITLE=Eva Cassidy - Songbird
DYEAR=0
DGENRE=
TTITLE0=Fielss of Gold
TTITLE1=Wade in the Water
TTITLE2=Autum Leaves
TTITLE3=Wayfaring Stranger
TTITLE4=Songbird
TTITLE5=Time is a Healer
TTITLE6=I know you by heart
TTITLE7=People Get Ready
TTITLE8=Oh, Had I a Golden Thread
TTITLE9=Over the Ranbow
EXTD=
EXTT0=
EXTT1=
EXTT2=
EXTT3=
EXTT4=
EXTT5=
EXTT6=
EXTT7=
EXTT8=
EXTT9=
PLAYORDER=
